<svg xmlns="http://www.w3.org/2000/svg" xmlns:xlink="http://www.w3.org/1999/xlink" xml:space="preserve" width="210mm" height="297mm" viewBox="0 0 210 297"><defs><linearGradient id="b"><stop offset=".521" style="stop-color:#553edf;stop-opacity:1"/><stop offset="1" style="stop-color:#553edf;stop-opacity:0"/></linearGradient><linearGradient id="a"><stop offset=".342" style="stop-color:#140d0b;stop-opacity:1"/><stop offset="1" style="stop-color:#513933;stop-opacity:1"/></linearGradient><linearGradient xlink:href="#a" id="e" x1="89.389" x2="89.244" y1="134.026" y2="149.687" gradientUnits="userSpaceOnUse"/><linearGradient xlink:href="#a" id="g" x1="89.389" x2="89.244" y1="134.026" y2="149.687" gradientUnits="userSpaceOnUse"/><linearGradient xlink:href="#b" id="c" x1="103.929" x2="106.119" y1=".348" y2="296.948" gradientTransform="matrix(1.00046 0 0 1.00032 -.048 -.048)" gradientUnits="userSpaceOnUse"/><clipPath id="d" clipPathUnits="userSpaceOnUse"><path d="M88.558 136.71c-3.613.145-5.785.987-9.056 2.614-.962.522-2.029 1.17-1.607 2.424 1.428 3.707 2.494 6.756 6.433 7.654 4.075.991 8.908.653 13.331-2.391 1.81-1.476 3.461-4.133 3.276-6.537-.577-1.133-2.91-2.59-4.467-3.075-2.405-.705-5.414-.723-7.91-.69z" style="display:inline;fill:#fff;fill-opacity:1;stroke:none;stroke-width:.263914;stroke-opacity:1"/></clipPath><clipPath id="f" clipPathUnits="userSpaceOnUse"><path d="M88.558 136.71c-3.613.145-5.785.987-9.056 2.614-.962.522-2.029 1.17-1.607 2.424 1.428 3.707 2.494 6.756 6.433 7.654 4.075.991 8.908.653 13.331-2.391 1.81-1.476 3.461-4.133 3.276-6.537-.577-1.133-2.91-2.59-4.467-3.075-2.405-.705-5.414-.723-7.91-.69z" style="display:inline;fill:#fff;fill-opacity:1;stroke:none;stroke-width:.263914;stroke-opacity:1"/></clipPath></defs><path d="M0 0h210v297H0z" style="display:inline;fill:url(#c);fill-opacity:1;stroke:none;opacity:1;stroke-dasharray:none;stroke-opacity:1;stroke-width:.0960001"/><path d="M68 215 0 235v62h210v-62l-72-20z" style="fill:#e41a08;fill-opacity:1;stroke:#000;stroke-width:.264999;stroke-opacity:.997608"/><g style="display:inline"><path d="M66.354 185.488s-4.855 19.748-5.306 23.724c-1.996 17.616 14.698 27.372 36.838 27.774 22.14.402 37.75-9.404 33.162-27.774-2.158-8.642-3.526-8.45-5.91-24.088" style="display:inline;fill:#f8cebd;fill-opacity:1;stroke:#000;stroke-width:.323617;stroke-opacity:.997608" transform="matrix(1.0002 0 0 1.00042 7.095 5.74)"/><g style="display:inline"><path d="M68.963 159.815c1.826 1.07 1.4-.615.935 7.026-.297 4.883-7.78 3.366-10.954.41-2.928-2.727-3.67-8.872-4.015-11.406-.574-4.229-1.165-15.483.006-20.061.413-1.614 2.707-2.663 3.186-5.48 1.821-10.692 4.138-17.011 4.138-17.011s9.789-36.006 43.9-36.492c30.432-.433 31.61 5.296 46.068 32.95.213.409 1.884 4.735 3.602 9.365 1.719 4.63 3.485 9.562 3.89 11.182.774 3.102 5.06 2.906 5.504 6.666 3.946 33.455-3.994 33.129-3.994 33.129s-7.772 6.807-12 1.9c-4.226-4.908-80.266-12.178-80.266-12.178z" style="display:inline;opacity:1;fill:#080b0f;fill-opacity:1;stroke:#000;stroke-width:.0997743;stroke-dasharray:none;stroke-opacity:.997608" transform="matrix(1.22144 0 0 1.22171 -29.714 -46.74)"/><path d="M163.012 66.795c2.266-25.582 36.682-26.14 36.682-26.14s37.572.83 40.089 28.043c2.517 27.213 3.693 32.16 1.344 47.99-1.038 7-1.011 13.62-6.731 20.138-5.606 6.388-20.338 21.034-33.5 20.907-12.77-.123-26.59-14.046-32.104-20.907-4.939-6.146-4.163-9.055-5.47-20.186-1.271-10.81-2.64-34.507-.31-49.845z" style="display:inline;fill:#f8cebd;fill-opacity:1;stroke:#000;stroke-width:.264583;stroke-opacity:.997608" transform="matrix(1.22144 0 0 1.22171 -143.054 15.78)"/><path d="M119.253 81.5c17.713-3.317 31.194 20.998 31.194 20.998s-5.81-8.904-16.991-11.299" style="display:inline;fill:#232626;fill-opacity:1;stroke:#000;stroke-width:.264999;stroke-opacity:.997608" transform="matrix(1.22144 0 0 1.22171 -26.83 -45.632)"/><path d="M83.465 87.718c48.353-32.737 75.31 22.364 63.608 36.796 0 0-8.456-22.216-19.203-28.342" style="display:inline;fill:#232626;fill-opacity:1;stroke:#000;stroke-width:.264999;stroke-opacity:.997608" transform="matrix(1.22144 0 0 1.22171 -26.83 -45.632)"/><path d="M85.252 86.54c-5.548 2.369-39.652 28.397-16.448 75.284 4.044 3.312-.431-26.774 1.708-28.746 27.403-25.254 25.26-43.392 25.26-43.392" style="display:inline;fill:#232626;fill-opacity:1;stroke:#000;stroke-width:.264999;stroke-opacity:.997608" transform="matrix(1.22144 0 0 1.22171 -26.83 -45.632)"/><path d="M83.52 88.383c14.273 4.412 17.785 20.644 17.785 20.644s4.616-22.965-15.281-26.107" style="display:inline;fill:#232626;fill-opacity:1;stroke:#000;stroke-width:.264999;stroke-opacity:.997608" transform="matrix(1.22144 0 0 1.22171 -15.065 -40.296)"/><path d="M86.079 82.907c11.275.352 30.831 26.565 30.831 26.565s-7.293-20.946-11.232-24.147" style="display:inline;fill:#232626;fill-opacity:1;stroke:#000;stroke-width:.264999;stroke-opacity:.997608" transform="matrix(1.22144 0 0 1.22171 -15.065 -40.296)"/><path d="M118.368 94.162s7.192 2.92 16.484 20.128c1.628-14.23-5.285-22.628-5.285-22.628" style="display:inline;fill:#232626;fill-opacity:1;stroke:#000;stroke-width:.264999;stroke-opacity:.997608" transform="matrix(1.22144 0 0 1.22171 -26.83 -45.632)"/><path d="M87.852 182.674c.79-.791.557 2.795 1.519 1.117.631-1.127 2.055.026 2.334-.185.646-2.247 1.862-4.878 4.411-5.366 3.543-.603 7.02 2.013 10.519.667 1.077-.743 1.756-1.217 2.737-.115 2.804 1.684 6.098.468 9.026-.143 1.905-.464 4.236-.328 5.517 1.364.94 1.137 1.46 2.553 1.86 3.955.83-1.613 2.477.396 2.905.199.134-.715.643-1.805.889-1.652.287-2.852-1.537-5.505-3.983-6.82-3.976-2.19-8.73-2.681-13.181-2.094-1.506.296-3.327.565-4.223 1.952-1.132-1.501-3.21-1.714-4.948-1.97-4.177-.361-8.654.19-12.218 2.54-2.164 1.42-3.487 3.947-3.164 6.55z" style="display:inline;opacity:1;fill:#232626;fill-opacity:1;stroke:#000;stroke-width:.0960001;stroke-dasharray:none;stroke-opacity:.997608" transform="matrix(1.22144 0 0 1.22171 -29.714 -46.74)"/><g style="display:inline"><path d="m95.313 182.889 26.362-.262z" style="display:inline;fill:none;fill-opacity:.554653;stroke:#000;stroke-width:.265;stroke-dasharray:none;stroke-opacity:.997608" transform="matrix(1.22144 0 0 1.22171 -29.714 -46.74)"/></g><g style="display:inline"><path d="M100.894 141.18c.75-8.155-27.408-5.712-24.712.648 5.692 13.425 23.866 8.56 24.712-.648z" style="display:inline;fill:#000;fill-opacity:1;stroke:none;stroke-width:.264848;stroke-opacity:1" transform="matrix(.9998 0 0 .99687 -11.801 -17.987)"/><path d="M88.558 136.71c-3.613.145-5.785.987-9.056 2.614-.962.522-2.029 1.17-1.607 2.424 1.428 3.707 2.494 6.756 6.433 7.654 4.075.991 8.908.653 13.331-2.391 1.81-1.476 3.461-4.133 3.276-6.537-.577-1.133-2.91-2.59-4.467-3.075-2.405-.705-5.414-.723-7.91-.69z" style="display:inline;fill:#fff;fill-opacity:1;stroke:none;stroke-width:.263914;stroke-opacity:1" transform="matrix(.9998 0 0 .99687 -11.801 -17.987)"/><g clip-path="url(#d)" transform="matrix(.9998 0 0 .99687 -11.801 -17.987)"><ellipse cx="89.448" cy="142.054" rx="7.358" ry="7.95" style="display:inline;fill:url(#e);fill-opacity:1;stroke:#000;stroke-width:.348362;stroke-opacity:.997608"/><ellipse cx="89.452" cy="139.881" rx="3.574" ry="4.737" style="display:inline;fill:#000;fill-opacity:1;stroke:none;stroke-width:.420793;stroke-opacity:.997608"/><ellipse cx="91.498" cy="143.744" rx=".676" ry=".646" style="display:inline;fill:#fff;fill-opacity:1;stroke:#000;stroke-width:.0946318;stroke-opacity:.997608"/><ellipse cx="85.833" cy="139.162" rx="1.177" ry="1.131" style="display:inline;fill:#fff;fill-opacity:1;stroke:#000;stroke-width:.165247;stroke-opacity:.997608"/></g><path d="M89.24 132.815s4.146-1.513 8.322.865c-4.452-2.011-8.323-.865-8.323-.865z" style="display:inline;fill:none;fill-opacity:1;stroke:#000;stroke-width:.165;stroke-dasharray:none;stroke-opacity:.997608" transform="matrix(.9998 0 0 .99687 -11.801 -17.987)"/><path d="M76.026 132.064s.49-8.546 17.988-4.737c2.867.624 9.185 1.45 9.46 2.284 1.918 5.829-20.858-7.414-27.448 2.453z" style="display:inline;fill:#000;stroke:#000;stroke-width:.264583;stroke-opacity:1" transform="matrix(.9998 0 0 .99687 -11.801 -17.987)"/></g><g style="display:inline"><path d="M100.894 141.18c.75-8.155-27.408-5.712-24.712.648 5.692 13.425 23.866 8.56 24.712-.648z" style="display:inline;fill:#000;fill-opacity:1;stroke:none;stroke-width:.264848;stroke-opacity:1" transform="matrix(-.99971 0 0 .99628 216.91 -17.94)"/><path d="M88.558 136.71c-3.613.145-5.785.987-9.056 2.614-.962.522-2.029 1.17-1.607 2.424 1.428 3.707 2.494 6.756 6.433 7.654 4.075.991 8.908.653 13.331-2.391 1.81-1.476 3.461-4.133 3.276-6.537-.577-1.133-2.91-2.59-4.467-3.075-2.405-.705-5.414-.723-7.91-.69z" style="display:inline;fill:#fff;fill-opacity:1;stroke:none;stroke-width:.263914;stroke-opacity:1" transform="matrix(-.99971 0 0 .99628 216.91 -17.94)"/><g clip-path="url(#f)" transform="matrix(-.99971 0 0 .99628 216.91 -17.94)"><ellipse cx="89.448" cy="142.054" rx="7.358" ry="7.95" style="display:inline;fill:url(#g);fill-opacity:1;stroke:#000;stroke-width:.348362;stroke-opacity:.997608"/><ellipse cx="89.452" cy="139.881" rx="3.574" ry="4.737" style="display:inline;fill:#000;fill-opacity:1;stroke:none;stroke-width:.420793;stroke-opacity:.997608"/><ellipse cx="86.791" cy="143.502" rx=".676" ry=".646" style="display:inline;fill:#fff;fill-opacity:1;stroke:#000;stroke-width:.0946318;stroke-opacity:.997608"/><ellipse cx="92.777" cy="139.395" rx="1.177" ry="1.131" style="display:inline;fill:#fff;fill-opacity:1;stroke:#000;stroke-width:.165247;stroke-opacity:.997608"/></g><path d="M89.24 132.815s4.146-1.513 8.322.865c-4.452-2.011-8.323-.865-8.323-.865z" style="display:inline;fill:none;fill-opacity:1;stroke:#000;stroke-width:.165;stroke-dasharray:none;stroke-opacity:.997608" transform="matrix(-.99971 0 0 .99628 216.91 -17.94)"/><path d="M76.026 132.064s.49-8.546 17.988-4.737c2.867.624 9.185 1.45 9.46 2.284 1.918 5.829-20.858-7.414-27.448 2.453z" style="display:inline;fill:#000;stroke:#000;stroke-width:.264583;stroke-opacity:1" transform="matrix(-.99971 0 0 .99628 216.91 -17.94)"/></g><g style="display:inline"><path d="M108.935 158.485c3.143 2.032 3.752 2.561 4.664 3.812-1.263 1.96-2.592 4.026-4.593 5.112 2.227-4.649 1.986-4.235-.07-8.924z" style="display:inline;fill:#292b2d;fill-opacity:.554653;stroke:none;stroke-width:.165;stroke-dasharray:none;stroke-opacity:1" transform="matrix(1.22144 0 0 1.22171 -29.714 -46.74)"/><path d="M108.935 158.485c2.074 2.132 1.864 1.952 3.448 4.208-.61 1.547-2.194 3.53-3.611 4.964 1.335-3.064 1.425-6.263.163-9.172z" style="display:inline;fill:#212324;fill-opacity:1;stroke:none;stroke-width:.165;stroke-dasharray:none;stroke-opacity:1" transform="matrix(1.22144 0 0 1.22171 -29.714 -46.74)"/></g></g></g></svg>