<svg xmlns="http://www.w3.org/2000/svg" xmlns:xlink="http://www.w3.org/1999/xlink" xml:space="preserve" width="210mm" height="297mm" viewBox="0 0 210 297"><defs><linearGradient id="a"><stop offset=".342" style="stop-color:#140d0b;stop-opacity:1"/><stop offset="1" style="stop-color:#513933;stop-opacity:1"/></linearGradient><linearGradient xlink:href="#a" id="d" x1="89.389" x2="89.244" y1="134.026" y2="149.687" gradientUnits="userSpaceOnUse"/><linearGradient xlink:href="#a" id="f" x1="89.389" x2="89.244" y1="134.026" y2="149.687" gradientUnits="userSpaceOnUse"/><clipPath id="b" clipPathUnits="userSpaceOnUse"><path d="M138.613 190.956c-1.59-1.036 4.414 7.008 2.777 22.461-1.415 10.814-6.147 20.968-34.39 24.815-34.01-1.412-29.597-20.44-31.234-29.964-2.94-22.905 10.925-21.14 7.3-22.093 14.416 15.261 24.563 9.235 55.547 4.78z" style="display:inline;fill:red;fill-opacity:.979202;stroke:#000;stroke-width:.593963;stroke-dasharray:none;stroke-opacity:1"/></clipPath><clipPath id="c" clipPathUnits="userSpaceOnUse"><path d="M88.558 136.71c-3.613.145-5.785.987-9.056 2.614-.962.522-2.029 1.17-1.607 2.424 1.428 3.707 2.494 6.756 6.433 7.654 4.075.991 8.908.653 13.331-2.391 1.81-1.476 3.461-4.133 3.276-6.537-.577-1.133-2.91-2.59-4.467-3.075-2.405-.705-5.414-.723-7.91-.69z" style="display:inline;fill:#fff;fill-opacity:1;stroke:none;stroke-width:.263914;stroke-opacity:1"/></clipPath><clipPath id="e" clipPathUnits="userSpaceOnUse"><path d="M88.558 136.71c-3.613.145-5.785.987-9.056 2.614-.962.522-2.029 1.17-1.607 2.424 1.428 3.707 2.494 6.756 6.433 7.654 4.075.991 8.908.653 13.331-2.391 1.81-1.476 3.461-4.133 3.276-6.537-.577-1.133-2.91-2.59-4.467-3.075-2.405-.705-5.414-.723-7.91-.69z" style="display:inline;fill:#fff;fill-opacity:1;stroke:none;stroke-width:.263914;stroke-opacity:1"/></clipPath></defs><path d="M.048.048h209.904v296.904H.048z" style="display:inline;fill:#553edf;fill-opacity:1;stroke:none;opacity:1;stroke-dasharray:none;stroke-opacity:1;stroke-width:.0960001"/><g style="display:inline"><path d="M74.963 187.498h68.612v111.538H74.963z" clip-path="url(#b)" style="display:inline;fill:#f8cebd;fill-opacity:1;stroke-width:.271862"/><path d="M.332 230.26s1.088-7.908 5.168-5.344c2.691-5.328 6.272-5.199 8.673-8.443 1.661-2.244-1.366-6.291 3.838-7.448 1.953-1.675-1.626-3.824 22.408-7.297 12.839-1.854 13.844-3.888 17.516-5.246 2.426-2.238 4.314-3.694 13.274-5.767 1.719-2.732 8.068-5.992 11.704-5.039 3.637.953-10.273-.811-7.323 22.093 1.642 9.523-2.785 28.551 31.333 29.963 28.335-3.847 33.082-14 34.501-24.814 1.642-15.453-4.38-23.496-2.786-22.461 1.595 1.035 21.675 9.174 21.9 13.699 3.638.773 17.766 1.429 19.987 8.225.218.575 1.785-.512 8.325 4.701 2.94 2.343 3.093-6.274 10.69-1.068 2.034 1.395.649 5.462 2.388 7.012 4.9 4.364 7.822 15.37 7.709 14.703-.12-.697.065 59.18.065 59.18H.298l.034-66.65z" style="display:inline;opacity:1;fill:red;fill-opacity:.979202;stroke:#000;stroke-width:.59491;stroke-dasharray:none;stroke-opacity:1"/></g><g style="display:inline"><path d="M161.754 109.68c1.826.99 1.02 4.787-5.134 9.004-6.152 4.217-8.326-8.766-8.9-12.68-.575-3.915-1.166-14.333.006-18.572.412-1.494 2.706-2.465 3.186-5.072 1.821-9.899 4.138-15.749 4.138-15.749s12.871-38.774 43.76-35.431c30.23 3.271 43.722 7.693 52.022 46.043.18.836.871 2.131 1.68 5.131.775 2.871 5.062 2.69 5.505 6.17 3.946 30.972-3.994 30.67-3.994 30.67s-7.773 6.301-12 1.758-80.27-11.273-80.27-11.273z" style="display:inline;opacity:1;fill:#080b0f;fill-opacity:1;stroke:#000;stroke-width:.0960001;stroke-dasharray:none;stroke-opacity:.997608" transform="translate(-92.792 51.174)"/><path d="M163.012 66.795c2.266-25.582 36.682-26.14 36.682-26.14s37.572.83 40.089 28.043c2.517 27.213 2.066 51.68 2.066 51.68 1.09.617-4.63 20.634-10.35 27.152-5.605 6.388-30.603 10.203-30.603 10.203s-21.004-2.131-25.007-9.456c-4.002-7.324-12.67-17.685-13.29-28.876-.6-10.865-1.917-37.268.413-52.606z" style="display:inline;fill:#f8cebd;fill-opacity:1;stroke:#000;stroke-width:.264583;stroke-opacity:.997608" transform="translate(-92.792 51.174)"/><path d="M205.4 27.231c-.554-.034-5.9.508-6.11.54-8.671 1.302-15.732 4.067-21.48 7.644-.918.572-6.23.345-10.409 4.687-.23.238 9.486-4.077 9.208-3.582-.136.243-9.491 4.092-9.628 4.335-.124.22 9.507-3.899 9.385-3.68-.138.246-12.002 5.602-12.14 5.848-.127.228 11.923-5.34 11.798-5.113-.353.64-12.759 6.721-13.116 7.36-.127.227 6.76-2.619 6.636-2.393-.305.555-7.195 3.18-7.494 3.728-.15.276 6.46-2.427 6.315-2.155-.181.34-6.916 3.27-7.095 3.607-.131.247 5.7-1.995 5.308-1.533-.609.718-2.543.883-3.175 1.598-.502.568-.115.578-.535 1.26-1.32 2.143-2.644 4.552-3.647 6.323-.42.741.08 1.814-.285 2.54-.237.47-1.898.644-2.17 2.11-.064.343-2.077 1.057-2.14 1.39-.048.247 2.303-.595 2.259-.356-.03.157-1.625 2.845-1.68 2.993-2.724 7.268-2.242 11.303-2.242 11.303s-.633 2.786 4.112 20.52c.108.404-4.761 4.468-4.648 4.889.11.409 4.88-3.474 4.995-3.05 1.289 4.729 2.6 5.968 4.975 13.445 0 0 .01-24.573.424-39.118.332-11.67 10.67-22.287 22.614-27.801 1.515.07 2.864.377 3.101 1.212.752 1.405 1.787 5.866 1.945 8.981-.474-8.595-.648-10.571.898-10.76.883-.106 4.135 7.077 3.865 6.104-4.464-16.103 4.7 2.668 5.757 7.884-2.939-17.282 1.391-5.838 2.255 3.178.14-3.303-.94-13.847 1.51-3.473.268-2.601 1.036-7.978 1.093-12.256.014-.996 12.858 16.825 12.733 15.911-.061-.445-9.83-13.382 4.02-3.287-1.392-3.395-4.773-8.263-8.93-11.942-1.822-1.613 5.395.167 3.787-.83-.495-.307 1.55.848 4.158 2.54a2.411 2.411 0 0 0-.14-1.848c9.419 5.346 16.982 14.396 18.045 25.924 1.761 19.093 3.23 47.337 3.23 47.337l8.76-46.419s.475-3.066-.914-5.26c-2.284-3.606-5.462-6.663-6.495-11.944-.434-2.217-3.566-6.956-6.414-11.062-1.345-1.938-3.23-3.067-3.331-3.304-1.147-2.7 4.65 4.094 4.65 4.094s-1.007-6.127-6.914-9.03c-1.94-.954-2.609-2.74-9.852-2.332-.486-.373-4.711-1.875-4.284-2.08.464-.224 5.572.852 4.631.497-2.82-1.066-7.788-2.066-12.17-2.868-.79-.144 6.456-.393 5.688-.52-1.58-.26-3.952-.13-6.727-.288-2.11-.12-4.346-.29-6.185-.43-1.051-.08 2.887-1.025 2.194-1.068z" style="display:inline;opacity:1;fill:#232626;fill-opacity:1;stroke:#000;stroke-width:.0960001;stroke-dasharray:none;stroke-opacity:.997608" transform="translate(-92.792 51.174)"/><path d="M113.435 170.9s20.644 3.612 15.262 16.142c-4.773-13.595-18.291-4.886-15.262-16.142zM103.453 171.216s-20.644 3.612-15.262 16.142c4.773-13.594 18.291-4.886 15.262-16.142z" style="display:inline;opacity:1;fill:#232626;fill-opacity:1;stroke:#000;stroke-width:.0960001;stroke-dasharray:none;stroke-opacity:.997608"/><path d="M194.416 137.96s2.82-2.14 6.055-2.116c2.953.021 4.605.729 6.56 2.18 1.076.798-6.563 2.64-6.563 2.64-2.151-.583-4.335-1.087-6.052-2.703z" style="display:inline;opacity:1;fill:#232626;fill-opacity:1;stroke:#000;stroke-width:.296;stroke-dasharray:none;stroke-opacity:1" transform="translate(-92.792 51.174)"/><g style="display:inline"><path d="M187.957 131.753s8.306 3.59 12.56 3.924c4.255.335 14.25-4.207 14.25-4.207s-7.803-4.153-10.075-4.115c-2.272.038-3.12.528-3.888.54-.768.012-2.931-.92-4.395-.859-1.464.061-7.356 3.227-8.452 4.717z" style="display:inline;fill:#ff8080;stroke:#000;stroke-width:.264583;stroke-opacity:.997608" transform="translate(-92.792 51.174)"/><path d="m95.313 182.889 26.362-.262z" style="display:inline;fill:none;fill-opacity:.554653;stroke:#000;stroke-width:.265;stroke-dasharray:none;stroke-opacity:.997608"/></g><g style="display:inline"><path d="M100.894 141.18c.75-8.155-27.408-5.712-24.712.648 5.692 13.425 23.866 8.56 24.712-.648z" style="display:inline;fill:#000;fill-opacity:1;stroke:none;stroke-width:.264848;stroke-opacity:1" transform="matrix(.81855 0 0 .81596 14.665 23.536)"/><path d="M88.558 136.71c-3.613.145-5.785.987-9.056 2.614-.962.522-2.029 1.17-1.607 2.424 1.428 3.707 2.494 6.756 6.433 7.654 4.075.991 8.908.653 13.331-2.391 1.81-1.476 3.461-4.133 3.276-6.537-.577-1.133-2.91-2.59-4.467-3.075-2.405-.705-5.414-.723-7.91-.69z" style="display:inline;fill:#fff;fill-opacity:1;stroke:none;stroke-width:.263914;stroke-opacity:1" transform="matrix(.81855 0 0 .81596 14.665 23.536)"/><g clip-path="url(#c)" transform="matrix(.81855 0 0 .81596 14.665 23.536)"><ellipse cx="89.448" cy="142.054" rx="7.358" ry="7.95" style="display:inline;fill:url(#d);fill-opacity:1;stroke:#000;stroke-width:.348362;stroke-opacity:.997608"/><ellipse cx="89.452" cy="139.881" rx="3.574" ry="4.737" style="display:inline;fill:#000;fill-opacity:1;stroke:none;stroke-width:.420793;stroke-opacity:.997608"/><ellipse cx="91.498" cy="143.744" rx=".676" ry=".646" style="display:inline;fill:#fff;fill-opacity:1;stroke:#000;stroke-width:.0946318;stroke-opacity:.997608"/><ellipse cx="85.833" cy="139.162" rx="1.177" ry="1.131" style="display:inline;fill:#fff;fill-opacity:1;stroke:#000;stroke-width:.165247;stroke-opacity:.997608"/></g><path d="M89.24 132.815s4.146-1.513 8.322.865c-4.452-2.011-8.323-.865-8.323-.865z" style="display:inline;fill:none;fill-opacity:1;stroke:#000;stroke-width:.165;stroke-dasharray:none;stroke-opacity:.997608" transform="matrix(.81855 0 0 .81596 14.665 23.536)"/><path d="M76.026 132.064s.49-8.546 17.988-4.737c2.867.624 9.185 1.45 9.46 2.284 1.918 5.829-20.858-7.414-27.448 2.453z" style="display:inline;fill:#000;stroke:#000;stroke-width:.264583;stroke-opacity:1" transform="matrix(.81855 0 0 .81596 14.665 23.536)"/></g><g style="display:inline"><path d="M100.894 141.18c.75-8.155-27.408-5.712-24.712.648 5.692 13.425 23.866 8.56 24.712-.648z" style="display:inline;fill:#000;fill-opacity:1;stroke:none;stroke-width:.264848;stroke-opacity:1" transform="matrix(-.81847 0 0 .81548 201.913 23.575)"/><path d="M88.558 136.71c-3.613.145-5.785.987-9.056 2.614-.962.522-2.029 1.17-1.607 2.424 1.428 3.707 2.494 6.756 6.433 7.654 4.075.991 8.908.653 13.331-2.391 1.81-1.476 3.461-4.133 3.276-6.537-.577-1.133-2.91-2.59-4.467-3.075-2.405-.705-5.414-.723-7.91-.69z" style="display:inline;fill:#fff;fill-opacity:1;stroke:none;stroke-width:.263914;stroke-opacity:1" transform="matrix(-.81847 0 0 .81548 201.913 23.575)"/><g clip-path="url(#e)" transform="matrix(-.81847 0 0 .81548 201.913 23.575)"><ellipse cx="89.448" cy="142.054" rx="7.358" ry="7.95" style="display:inline;fill:url(#f);fill-opacity:1;stroke:#000;stroke-width:.348362;stroke-opacity:.997608"/><ellipse cx="89.452" cy="139.881" rx="3.574" ry="4.737" style="display:inline;fill:#000;fill-opacity:1;stroke:none;stroke-width:.420793;stroke-opacity:.997608"/><ellipse cx="86.791" cy="143.502" rx=".676" ry=".646" style="display:inline;fill:#fff;fill-opacity:1;stroke:#000;stroke-width:.0946318;stroke-opacity:.997608"/><ellipse cx="92.777" cy="139.395" rx="1.177" ry="1.131" style="display:inline;fill:#fff;fill-opacity:1;stroke:#000;stroke-width:.165247;stroke-opacity:.997608"/></g><path d="M89.24 132.815s4.146-1.513 8.322.865c-4.452-2.011-8.323-.865-8.323-.865z" style="display:inline;fill:none;fill-opacity:1;stroke:#000;stroke-width:.165;stroke-dasharray:none;stroke-opacity:.997608" transform="matrix(-.81847 0 0 .81548 201.913 23.575)"/><path d="M76.026 132.064s.49-8.546 17.988-4.737c2.867.624 9.185 1.45 9.46 2.284 1.918 5.829-20.858-7.414-27.448 2.453z" style="display:inline;fill:#000;stroke:#000;stroke-width:.264583;stroke-opacity:1" transform="matrix(-.81847 0 0 .81548 201.913 23.575)"/></g><path d="M108.935 158.485c3.143 2.032 3.752 2.561 4.664 3.812-1.263 1.96-2.592 4.026-4.593 5.112 2.227-4.649 1.986-4.235-.07-8.924z" style="fill:#292b2d;fill-opacity:.554653;stroke:none;stroke-width:.165;stroke-dasharray:none;stroke-opacity:1"/><path d="M108.935 158.485c2.074 2.132 1.864 1.952 3.448 4.208-.61 1.547-2.194 3.53-3.611 4.964 1.335-3.064 1.425-6.263.163-9.172z" style="fill:#212324;fill-opacity:1;stroke:none;stroke-width:.165;stroke-dasharray:none;stroke-opacity:1"/></g></svg>